<svg width="141" height="140" viewBox="0 0 141 140" fill="none" xmlns="http://www.w3.org/2000/svg">
<g clip-path="url(#clip0_136:97)">
<ellipse cx="70.5" cy="70.5" rx="70" ry="68.5" fill="white"/>
<path d="M70.5 2.1875C31.8589 2.1875 0.5 32.8744 0.5 70.6875C0.5 108.501 31.8589 139.187 70.5 139.187C109.141 139.187 140.5 108.501 140.5 70.6875C140.5 32.8744 109.141 2.1875 70.5 2.1875ZM98.9234 102.976C97.7379 102.976 97.004 102.617 95.9032 101.982C78.2903 91.5966 57.7984 91.1546 37.5605 95.2149C36.4597 95.4911 35.0202 95.9331 34.2016 95.9331C31.4637 95.9331 29.7419 93.8062 29.7419 91.5689C29.7419 88.724 31.4637 87.3706 33.5806 86.9286C56.6976 81.9292 80.3226 82.3712 100.476 94.1653C102.198 95.2425 103.214 96.2093 103.214 98.7228C103.214 101.236 101.21 102.976 98.9234 102.976ZM106.516 84.8571C105.048 84.8571 104.06 84.2218 103.044 83.697C85.4032 73.4772 59.0968 69.3617 35.6976 75.5764C34.3427 75.9355 33.6089 76.2946 32.3387 76.2946C29.3185 76.2946 26.8629 73.8915 26.8629 70.9361C26.8629 67.9806 28.3306 66.0196 31.2379 65.2185C39.0847 63.0641 47.1008 61.4621 58.8427 61.4621C77.1613 61.4621 94.8589 65.9091 108.802 74.0296C111.089 75.3554 111.992 77.0679 111.992 79.471C111.964 82.454 109.593 84.8571 106.516 84.8571ZM115.266 63.8099C113.798 63.8099 112.895 63.4508 111.625 62.7327C91.5282 50.9937 55.5968 48.1764 32.3387 54.5292C31.3226 54.8054 30.0524 55.2474 28.6976 55.2474C24.9718 55.2474 22.121 52.4024 22.121 48.7288C22.121 44.9724 24.4919 42.8456 27.0323 42.1274C36.9677 39.2825 48.0887 37.929 60.1976 37.929C80.8024 37.929 102.395 42.1274 118.173 51.1319C120.375 52.3748 121.815 54.0873 121.815 57.3742C121.815 61.1306 118.71 63.8099 115.266 63.8099Z" fill="url(#paint0_linear_136:97)"/>
</g>
<defs>
<linearGradient id="paint0_linear_136:97" x1="70.5" y1="2.1875" x2="70.5" y2="139.188" gradientUnits="userSpaceOnUse">
<stop stop-color="#04B9D0"/>
<stop offset="1" stop-color="#1CB854"/>
</linearGradient>
<clipPath id="clip0_136:97">
<rect width="140" height="140" fill="white" transform="translate(0.5)"/>
</clipPath>
</defs>
</svg>
