<svg width="141" height="140" viewBox="0 0 141 140" fill="none" xmlns="http://www.w3.org/2000/svg">
<g clip-path="url(#clip0_136:82)">
<ellipse cx="70.5" cy="68" rx="70" ry="68" fill="url(#paint0_linear_136:82)"/>
<path d="M116.376 41.6112C117.043 38.955 116.376 37 113.168 37H102.552C99.8482 37 98.6046 38.6787 97.9378 40.5487C97.9378 40.5487 92.5307 56.0825 84.8887 66.155C82.4195 69.0662 81.284 70.0013 79.9323 70.0013C79.2654 70.0013 78.238 69.0662 78.238 66.41V41.6112C78.238 38.4237 77.4811 37 75.2461 37H58.5564C56.8621 37 55.8528 38.4875 55.8528 39.8688C55.8528 42.8863 59.6738 43.5875 60.0703 52.0875V70.5325C60.0703 74.57 59.4575 75.3137 58.1058 75.3137C54.5011 75.3137 45.7416 59.7163 40.5509 41.8663C39.5055 38.4025 38.4782 37 35.7566 37H25.1408C22.1128 37 21.5 38.6787 21.5 40.5487C21.5 43.8637 25.1047 60.3325 38.2799 82.0925C47.0574 96.9463 59.4215 105 70.6682 105C77.427 105 78.2561 103.215 78.2561 100.134C78.2561 85.9388 77.6433 84.6 81.0317 84.6C82.5997 84.6 85.3033 85.535 91.6115 92.6963C98.8209 101.196 100.01 105 104.048 105H114.664C117.692 105 119.224 103.215 118.34 99.6875C116.322 92.2713 102.678 77.0138 102.065 75.9938C100.497 73.6138 100.948 72.5513 102.065 70.4263C102.083 70.405 115.042 48.9 116.376 41.6112Z" fill="white"/>
</g>
<defs>
<linearGradient id="paint0_linear_136:82" x1="71" y1="136" x2="71" y2="2.61119e-07" gradientUnits="userSpaceOnUse">
<stop stop-color="#0456D0"/>
<stop offset="1" stop-color="#099FF4"/>
</linearGradient>
<clipPath id="clip0_136:82">
<rect width="140" height="140" fill="white" transform="translate(0.5)"/>
</clipPath>
</defs>
</svg>
