<svg width="141" height="140" viewBox="0 0 141 140" fill="none" xmlns="http://www.w3.org/2000/svg">
<g clip-path="url(#clip0_136:106)">
<ellipse cx="70.5" cy="70" rx="70" ry="68" fill="url(#paint0_linear_136:106)"/>
<path d="M79.3531 48.6783C82.3456 49.4264 85.3381 50.6733 88.0812 52.419V63.3915C85.5875 61.1471 82.595 59.4015 79.3531 58.1546V48.6783ZM70.6249 47.4314C51.4229 47.4314 35.7122 63.6409 35.7122 83.591C35.7122 103.541 51.4229 119.751 70.6249 119.751C89.8269 119.751 105.538 103.541 105.538 83.591H97.0588V83.8404C97.0588 99.0524 85.3381 111.272 70.6249 111.272C55.9117 111.272 44.191 99.0524 44.191 83.8404C44.191 68.8778 55.9117 56.6584 70.3755 56.409V47.4314H70.6249Z" fill="white"/>
<path d="M88.0812 42.1945V83.8404C88.0812 93.8155 80.3505 102.045 70.6248 102.045C60.8991 102.045 53.1685 93.8155 53.1685 83.8404C53.1685 73.8654 60.8991 65.6359 70.6248 65.6359C73.368 65.6359 75.8617 66.3841 78.1061 67.3816V20.4988L105.538 29.4763V47.4314L88.0812 42.1945Z" fill="white"/>
</g>
<defs>
<linearGradient id="paint0_linear_136:106" x1="70.5" y1="2" x2="70.5" y2="138" gradientUnits="userSpaceOnUse">
<stop stop-color="#D0C804"/>
<stop offset="1" stop-color="#FFCC00"/>
</linearGradient>
<clipPath id="clip0_136:106">
<rect width="140" height="140" fill="white" transform="translate(0.5)"/>
</clipPath>
</defs>
</svg>
