<svg width="307" height="373" viewBox="0 0 307 373" fill="none" xmlns="http://www.w3.org/2000/svg">
<path d="M123 333C117.562 333 113 337.563 113 343V373H133V343C133 337.563 128.5 333 123 333ZM183 333C177.531 333 173 337.531 173 343C173 348.469 177.531 353 183 353C188.469 353 193 348.469 193 343C193 337.531 188.5 333 183 333ZM115.5 160.5L120.628 175.888C121.388 178.166 124.612 178.166 125.372 175.888L130.5 160.5L145.887 155.373C148.166 154.611 148.166 151.389 145.887 150.627L130.5 145.5L125.375 130.125C124.616 127.845 121.391 127.845 120.631 130.125L115.5 145.5L100.125 150.625C97.8462 151.387 97.8462 154.609 100.125 155.371L115.5 160.5ZM223.062 250.125C203 264.625 178.688 273 153 273C127.312 273 102.981 264.606 82.9375 250.131C42.0938 265.625 13 305.063 13 351.313C13 363.313 22.7 373 34.6625 373H93V333C93 321.906 101.906 313 113 313H193C204.094 313 213 321.906 213 333V373H271.337C283.312 373 293 363.313 293 351.313C293 305.063 263.938 265.625 223.062 250.125ZM53 193H61.4375C76.9375 228.313 112 253 153 253C194 253 229.125 228.313 244.562 193H253C258.469 193 263 188.469 263 183V123C263 117.563 258.5 113 253 113H244.562C229.125 77.6875 194 53 153 53C112 53 76.9375 77.6875 61.4375 113H53C47.5312 113 43 117.563 43 123V183C43 188.5 47.5312 193 53 193ZM78 138C78 124.188 91.4375 113 108 113H198C214.562 113 228 124.175 228 138V153C228 186.125 201.125 213 168 213H138C104.875 213 78 186.125 78 153V138Z" fill="white"/>
<path d="M123 333C117.562 333 113 337.563 113 343V373H133V343C133 337.563 128.5 333 123 333ZM183 333C177.531 333 173 337.531 173 343C173 348.469 177.531 353 183 353C188.469 353 193 348.469 193 343C193 337.531 188.5 333 183 333ZM115.5 160.5L120.628 175.888C121.388 178.166 124.612 178.166 125.372 175.888L130.5 160.5L145.887 155.373C148.166 154.611 148.166 151.389 145.887 150.627L130.5 145.5L125.375 130.125C124.616 127.845 121.391 127.845 120.631 130.125L115.5 145.5L100.125 150.625C97.8462 151.387 97.8462 154.609 100.125 155.371L115.5 160.5ZM223.062 250.125C203 264.625 178.688 273 153 273C127.312 273 102.981 264.606 82.9375 250.131C42.0938 265.625 13 305.063 13 351.313C13 363.313 22.7 373 34.6625 373H93V333C93 321.906 101.906 313 113 313H193C204.094 313 213 321.906 213 333V373H271.337C283.312 373 293 363.313 293 351.313C293 305.063 263.938 265.625 223.062 250.125ZM53 193H61.4375C76.9375 228.313 112 253 153 253C194 253 229.125 228.313 244.562 193H253C258.469 193 263 188.469 263 183V123C263 117.563 258.5 113 253 113H244.562C229.125 77.6875 194 53 153 53C112 53 76.9375 77.6875 61.4375 113H53C47.5312 113 43 117.563 43 123V183C43 188.5 47.5312 193 53 193ZM78 138C78 124.188 91.4375 113 108 113H198C214.562 113 228 124.175 228 138V153C228 186.125 201.125 213 168 213H138C104.875 213 78 186.125 78 153V138Z" fill="url(#paint0_linear_165:84)"/>
<path d="M307 119.771L306.997 166.365C306.46 184.753 285.474 199.688 259.031 199.688C243.16 199.688 230.25 190.718 230.25 179.694V126.51C230.25 115.486 243.142 106.5 259.031 106.5C265.525 106.5 271.569 107.633 277.199 109.278C269.644 66.1881 217.119 33.3353 153.5 33.3353C89.8814 33.3353 37.3497 66.1881 29.8006 109.287C35.4309 107.623 41.475 106.5 47.9688 106.5C63.8584 106.5 76.75 115.486 76.75 126.51V179.719C76.75 190.702 63.8584 199.688 47.9688 199.688C21.52 199.688 0.539648 184.761 0.539648 166.381L0 119.812C0 61.0711 68.8352 13.3125 153.5 13.3125C237.985 13.3125 306.76 60.9463 306.46 119.521C306.46 119.604 306.46 119.688 307 119.771Z" fill="white"/>
<path d="M307 119.771L306.997 166.365C306.46 184.753 285.474 199.688 259.031 199.688C243.16 199.688 230.25 190.718 230.25 179.694V126.51C230.25 115.486 243.142 106.5 259.031 106.5C265.525 106.5 271.569 107.633 277.199 109.278C269.644 66.1881 217.119 33.3353 153.5 33.3353C89.8814 33.3353 37.3497 66.1881 29.8006 109.287C35.4309 107.623 41.475 106.5 47.9688 106.5C63.8584 106.5 76.75 115.486 76.75 126.51V179.719C76.75 190.702 63.8584 199.688 47.9688 199.688C21.52 199.688 0.539648 184.761 0.539648 166.381L0 119.812C0 61.0711 68.8352 13.3125 153.5 13.3125C237.985 13.3125 306.76 60.9463 306.46 119.521C306.46 119.604 306.46 119.688 307 119.771Z" fill="url(#paint1_linear_165:84)"/>
<defs>
<linearGradient id="paint0_linear_165:84" x1="293" y1="187.5" x2="67" y2="373" gradientUnits="userSpaceOnUse">
<stop stop-color="#05F0FF"/>
<stop offset="0.849593" stop-color="#D02CC0" stop-opacity="0.196602"/>
<stop offset="1" stop-opacity="0"/>
</linearGradient>
<linearGradient id="paint1_linear_165:84" x1="296.5" y1="184" x2="70" y2="371.5" gradientUnits="userSpaceOnUse">
<stop stop-color="#05F0FF" stop-opacity="0.879187"/>
<stop offset="0.864533" stop-color="#D02CC0" stop-opacity="0.196602"/>
<stop offset="1" stop-opacity="0"/>
</linearGradient>
</defs>
</svg>
