<svg width="100" height="104" viewBox="0 0 100 104" fill="none" xmlns="http://www.w3.org/2000/svg">
<rect x="11" y="19.1129" width="78" height="68" rx="20" fill="white"/>
<path d="M24.0712 86.1104C23.4924 78.0062 29.9109 71.1129 38.0357 71.1129H62.6943C70.9178 71.1129 77.3702 78.1671 76.6388 86.358C75.9941 93.5787 69.9438 99.1129 62.6943 99.1129H38.0357C30.6907 99.1129 24.5946 93.4367 24.0712 86.1104Z" fill="white"/>
<path d="M33.4476 80.121C33.4476 80.5242 32.9839 80.8468 32.3992 80.8468C31.7339 80.9073 31.2702 80.5847 31.2702 80.121C31.2702 79.7178 31.7339 79.3952 32.3186 79.3952C32.9234 79.3347 33.4476 79.6573 33.4476 80.121ZM27.1774 79.2137C27.0363 79.617 27.4395 80.0807 28.0444 80.2016C28.5685 80.4032 29.1734 80.2016 29.2944 79.7984C29.4153 79.3952 29.0323 78.9315 28.4274 78.75C27.9032 78.6089 27.3185 78.8105 27.1774 79.2137ZM36.0887 78.871C35.504 79.0121 35.1008 79.3952 35.1613 79.8589C35.2218 80.2621 35.746 80.5242 36.3508 80.3831C36.9355 80.242 37.3387 79.8589 37.2782 79.4557C37.2177 79.0726 36.6734 78.8105 36.0887 78.871ZM49.3548 1.61292C21.3911 1.61292 0 22.8428 0 50.8065C0 73.1653 14.0726 92.2984 34.1734 99.0323C36.754 99.496 37.6613 97.9032 37.6613 96.5928C37.6613 95.3428 37.6008 88.4476 37.6008 84.2137C37.6008 84.2137 23.4879 87.2379 20.5242 78.2057C20.5242 78.2057 18.2258 72.3387 14.9194 70.8266C14.9194 70.8266 10.3024 67.6613 15.2419 67.7218C15.2419 67.7218 20.2621 68.125 23.0242 72.9234C27.4395 80.7057 34.8387 78.4678 37.7218 77.1371C38.1855 73.9113 39.496 71.6734 40.9476 70.3428C29.6774 69.0928 18.3065 67.4597 18.3065 48.0645C18.3065 42.5202 19.8387 39.7379 23.0645 36.1895C22.5403 34.879 20.8266 29.4758 23.5887 22.5C27.8024 21.1895 37.5 27.9436 37.5 27.9436C41.5323 26.8145 45.8669 26.2299 50.1613 26.2299C54.4556 26.2299 58.7903 26.8145 62.8226 27.9436C62.8226 27.9436 72.5202 21.1694 76.7339 22.5C79.496 29.496 77.7823 34.879 77.2581 36.1895C80.4839 39.7581 82.4597 42.5403 82.4597 48.0645C82.4597 67.5202 70.5847 69.0726 59.3145 70.3428C61.1694 71.9355 62.7419 74.9597 62.7419 79.6976C62.7419 86.492 62.6814 94.8992 62.6814 96.5524C62.6814 97.8629 63.6089 99.4557 66.1694 98.992C86.3307 92.2984 100 73.1653 100 50.8065C100 22.8428 77.3186 1.61292 49.3548 1.61292ZM19.5968 71.1492C19.3347 71.3508 19.3952 71.8145 19.7379 72.1976C20.0605 72.5202 20.5242 72.6613 20.7863 72.3992C21.0484 72.1976 20.9879 71.7339 20.6452 71.3508C20.3226 71.0282 19.8589 70.8871 19.5968 71.1492ZM17.4194 69.5161C17.2782 69.7782 17.4798 70.1008 17.8831 70.3024C18.2056 70.5041 18.6089 70.4436 18.75 70.1613C18.8911 69.8992 18.6895 69.5766 18.2863 69.375C17.8831 69.2541 17.5605 69.3145 17.4194 69.5161ZM23.9516 76.6936C23.629 76.9557 23.75 77.5605 24.2137 77.9436C24.6774 78.4073 25.2621 78.4678 25.5242 78.1452C25.7863 77.8831 25.6653 77.2782 25.2621 76.8952C24.8186 76.4315 24.2137 76.371 23.9516 76.6936ZM21.6532 73.7299C21.3306 73.9315 21.3306 74.4557 21.6532 74.9194C21.9758 75.3831 22.5202 75.5847 22.7823 75.3831C23.1048 75.121 23.1048 74.5968 22.7823 74.1331C22.5 73.6694 21.9758 73.4678 21.6532 73.7299Z" fill="url(#paint0_linear_129:107)"/>
<defs>
<linearGradient id="paint0_linear_129:107" x1="50" y1="1.61292" x2="50" y2="99.1144" gradientUnits="userSpaceOnUse">
<stop stop-color="#E2432A"/>
<stop offset="0.59375" stop-color="#FFCC66"/>
<stop offset="0.910694" stop-color="#FDAC34"/>
<stop offset="1" stop-color="#FCA326"/>
</linearGradient>
</defs>
</svg>
