<svg width="40" height="40" viewBox="0 0 40 40" fill="none" xmlns="http://www.w3.org/2000/svg">
<path d="M31.1429 13.4294C30.5481 13.4294 29.9786 13.5373 29.4514 13.7344C28.5071 12.8437 27.35 12.2866 26 12.2866C25.1686 12.2866 24.3971 12.5168 23.7121 12.8879L24.5064 7.96286C24.5509 7.68614 24.5725 7.41107 24.5725 7.13929C24.5725 4.56214 22.5075 2 19.4232 2C16.946 2 14.7582 3.79714 14.3496 6.32429L14.1 7.87371L13.7786 7.19871C12.8929 5.35943 11.0593 4.28586 9.14357 4.28586C6.22929 4.28586 4 6.663 4 9.43371C4 10.1823 4.164 10.9416 4.51029 11.6609L8.075 19.0651C6.33143 19.8866 5.14286 21.6937 5.14286 23.6509V29.3651C5.14286 30.9409 5.88571 32.4594 7.13071 33.4266L10.4129 35.9794C12.5093 37.6101 15.1257 38.5087 17.7843 38.5087L23.4136 38.5112C30.35 38.5723 36 32.8651 36 25.9866V18.308C36 15.5437 33.7071 13.4294 31.1429 13.4294ZM24.5714 17.1651C24.5714 16.3651 25.15 15.7151 26 15.7151C26.7871 15.7151 27.4286 16.3636 27.4286 17.1616V21.1259C27.4286 21.9223 26.7857 22.5723 26 22.5723C25.15 22.5723 24.5714 21.9223 24.5714 21.1294V17.1651ZM19.4214 5.428C20.2821 5.428 21.145 6.10736 21.145 7.14086C21.145 7.23207 21.1377 7.32443 21.1226 7.41736L19.4571 17.7509C18.9071 17.5437 18.3143 17.3651 17.7071 17.3651C17.3875 17.3651 17.0666 17.3951 16.7514 17.4547L15.9979 17.5709L17.735 6.80664C17.8714 6.03086 18.6 5.428 19.4214 5.428ZM7.36429 9.42943C7.36429 8.48157 8.135 7.71229 9.08 7.71229C9.71836 7.71229 10.33 8.07107 10.6236 8.68443L15.0014 17.7773L11.5214 18.3223L7.59857 10.1723C7.48286 9.93657 7.36429 9.67943 7.36429 9.42943ZM23.4143 35.1437L17.785 35.1412C15.8879 35.1412 14.0193 34.4995 12.5214 33.3341L9.23786 30.7805C8.81929 30.458 8.57143 29.9509 8.57143 29.3651V23.6509C8.57143 22.8487 9.14064 22.143 9.82786 21.9923L17.3493 20.833C17.4714 20.8723 17.5929 20.7937 17.7071 20.7937C18.5579 20.7937 19.4279 21.4738 19.4279 22.5123C19.4279 23.3009 18.8912 24.0087 18.2014 24.1616L14.0571 24.7866C13.1979 24.9032 12.5729 25.638 12.5729 26.483C12.5729 27.9266 13.9171 28.203 14.2657 28.203C14.4546 28.203 18.8807 27.5874 18.9471 27.5726C20.6293 27.1992 21.9121 25.9847 22.4993 24.4554C23.3786 25.3937 24.6143 26.0009 26 26.0009C26.5947 26.0009 27.165 25.893 27.6921 25.6959C28.5714 26.5866 29.7929 27.1437 31.1429 27.1437C31.1571 27.1437 31.8629 27.1119 32.475 26.9351C31.9929 31.5366 28.1357 35.1437 23.4143 35.1437ZM32.5714 22.2723C32.5714 23.0651 31.9286 23.7151 31.1429 23.7151C30.3557 23.7151 29.7143 23.0667 29.7143 22.2687V18.3044C29.7143 17.508 30.2929 16.858 31.1429 16.858C31.93 16.858 32.5714 17.5064 32.5714 18.3044V22.2723Z" fill="white"/>
</svg>
