<svg width="100" height="115" viewBox="0 0 100 115" fill="none" xmlns="http://www.w3.org/2000/svg">
<g clip-path="url(#clip0_129:120)">
<rect x="14" y="21.6429" width="72" height="71" rx="21" fill="white"/>
<path d="M50 45.2455C47.6454 45.2482 45.3444 45.9489 43.388 47.2592C41.4316 48.5695 39.9076 50.4305 39.0088 52.6068C38.1099 54.7831 37.8766 57.1771 38.3382 59.4861C38.7999 61.795 39.9358 63.9152 41.6023 65.5786C43.2688 67.2421 45.3912 68.374 47.701 68.8313C50.0108 69.2886 52.4044 69.0508 54.579 68.1479C56.7536 67.2449 58.6117 65.7175 59.9183 63.7586C61.225 61.7998 61.9214 59.4975 61.9196 57.1428C61.9149 53.9851 60.6569 50.9583 58.4219 48.7275C56.1869 46.4967 53.1578 45.2443 50 45.2455ZM77.8348 36.0937C77.2287 34.5577 76.3134 33.1625 75.1457 31.9949C73.9781 30.8272 72.5829 29.9119 71.0469 29.3058C66.3594 27.4553 55.1987 27.8705 49.9978 27.8705C44.7969 27.8705 33.6473 27.4397 28.9464 29.3058C27.4104 29.9119 26.0152 30.8272 24.8476 31.9949C23.6799 33.1625 22.7646 34.5577 22.1585 36.0937C20.3103 40.7812 20.7232 51.9531 20.7232 57.1495C20.7232 62.346 20.3125 73.5045 22.1696 78.192C22.7758 79.728 23.6911 81.1232 24.8587 82.2908C26.0264 83.4585 27.4215 84.3738 28.9576 84.9799C33.6451 86.8303 44.8058 86.4152 50.0089 86.4152C55.2121 86.4152 66.3571 86.846 71.058 84.9799C72.5941 84.3738 73.9892 83.4585 75.1569 82.2908C76.3246 81.1232 77.2399 79.728 77.846 78.192C79.7098 73.5045 79.2812 62.3326 79.2812 57.1362C79.2812 51.9397 79.7098 40.7812 77.8571 36.0937H77.8348ZM50 75.4464C46.3799 75.4464 42.8411 74.3729 39.8311 72.3617C36.8211 70.3505 34.4751 67.4919 33.0897 64.1473C31.7044 60.8028 31.3419 57.1225 32.0481 53.572C32.7544 50.0215 34.4976 46.7601 37.0574 44.2003C39.6172 41.6405 42.8786 39.8972 46.4291 39.191C49.9797 38.4847 53.6599 38.8472 57.0045 40.2326C60.349 41.6179 63.2076 43.9639 65.2189 46.9739C67.2301 49.9839 68.3036 53.5227 68.3036 57.1428C68.3065 59.5473 67.8351 61.9288 66.9163 64.1508C65.9975 66.3728 64.6494 68.3918 62.9491 70.092C61.2489 71.7922 59.23 73.1403 57.0079 74.0591C54.7859 74.9779 52.4045 75.4494 50 75.4464ZM69.058 42.3437C68.213 42.3442 67.3867 42.094 66.6839 41.6248C65.981 41.1556 65.433 40.4885 65.1093 39.7079C64.7856 38.9273 64.7007 38.0682 64.8653 37.2393C65.0299 36.4104 65.4366 35.6489 66.034 35.0512C66.6314 34.4535 67.3927 34.0464 68.2215 33.8814C69.0503 33.7163 69.9094 33.8008 70.6902 34.1241C71.471 34.4474 72.1384 34.995 72.608 35.6976C73.0775 36.4002 73.3281 37.2263 73.3281 38.0714C73.3293 38.6322 73.2198 39.1878 73.006 39.7062C72.7921 40.2246 72.478 40.6958 72.0818 41.0927C71.6855 41.4895 71.2149 41.8043 70.6968 42.019C70.1787 42.2337 69.6233 42.344 69.0625 42.3437H69.058ZM89.2857 7.14285H10.7143C7.87268 7.14285 5.14746 8.27168 3.13814 10.281C1.12882 12.2903 0 15.0155 0 17.8571L0 96.4286C0 99.2702 1.12882 101.995 3.13814 104.005C5.14746 106.014 7.87268 107.143 10.7143 107.143H89.2857C92.1273 107.143 94.8525 106.014 96.8619 104.005C98.8712 101.995 100 99.2702 100 96.4286V17.8571C100 15.0155 98.8712 12.2903 96.8619 10.281C94.8525 8.27168 92.1273 7.14285 89.2857 7.14285ZM85.4688 71.875C85.1808 77.596 83.875 82.6652 79.6987 86.8303C75.5223 90.9955 70.4576 92.3281 64.7433 92.6004C58.8482 92.933 41.1719 92.933 35.279 92.6004C29.558 92.3125 24.5067 91.0045 20.3237 86.8303C16.1406 82.6562 14.8259 77.5848 14.5536 71.875C14.221 65.9777 14.221 48.3036 14.5536 42.4107C14.8415 36.6897 16.1317 31.6205 20.3237 27.4554C24.5156 23.2902 29.5804 21.9732 35.279 21.7009C41.1741 21.3683 58.8504 21.3683 64.7433 21.7009C70.4643 21.9888 75.5312 23.2969 79.6987 27.471C83.8661 31.6451 85.1964 36.7165 85.4688 42.4375C85.8036 48.3036 85.8036 65.9821 85.4688 71.875Z" fill="url(#paint0_linear_129:120)"/>
</g>
<defs>
<linearGradient id="paint0_linear_129:120" x1="50" y1="7.14285" x2="50" y2="107.143" gradientUnits="userSpaceOnUse">
<stop stop-color="#F09433"/>
<stop offset="0.260417" stop-color="#E6683C"/>
<stop offset="0.5" stop-color="#DC2743" stop-opacity="0.78"/>
<stop offset="0.723958" stop-color="#CC2366" stop-opacity="0.65"/>
<stop offset="1" stop-color="#B210FF"/>
</linearGradient>
<clipPath id="clip0_129:120">
<rect width="100" height="114.286" fill="white"/>
</clipPath>
</defs>
</svg>
