<svg width="40" height="41" viewBox="0 0 40 41" fill="none" xmlns="http://www.w3.org/2000/svg">
<g clip-path="url(#clip0_156:191)">
<path d="M21 0.907471C14.925 0.907471 10 5.83247 10 11.9075C10 12.8268 10.1253 13.7156 10.3379 14.5693L0.587875 24.3193C0.210688 24.695 0 25.2075 0 25.7387V31.9075C0 32.4575 0.44775 32.9075 1 32.9075H7C7.55225 32.9075 8 32.4597 8 31.9075V28.9075H11C11.5522 28.9075 12 28.4597 12 27.9075V24.9075H15.5856C15.8507 24.9075 16.1051 24.802 16.2925 24.6145L18.3375 22.5695C19.1938 22.7262 20.0812 22.8512 21 22.8512C27.075 22.8512 32 17.9262 32 11.8512C32 5.77622 27.075 0.907471 21 0.907471ZM23.5 11.9075C22.1194 11.9075 21 10.7881 21 9.40747C21 8.02685 22.1187 6.90747 23.5 6.90747C24.8813 6.90747 26 8.02622 26 9.40747C26 10.7887 24.8813 11.9075 23.5 11.9075Z" fill="white"/>
</g>
<defs>
<clipPath id="clip0_156:191">
<rect width="40" height="40" fill="white" transform="translate(0 0.907471)"/>
</clipPath>
</defs>
</svg>
