<svg width="35" height="35" viewBox="0 0 35 35" fill="none" xmlns="http://www.w3.org/2000/svg">
<g clip-path="url(#clip0_129:301)">
<path d="M34.2013 30.3314L26.0187 22.1488C27.8795 19.3864 28.7975 15.9349 28.306 12.2572C27.4679 6.0016 22.341 0.910874 16.0793 0.118111C6.7694 -1.05993 -1.05911 6.76859 0.118993 16.0784C0.911962 22.3429 6.00337 27.474 12.2596 28.3079C15.9374 28.7994 19.3895 27.8817 22.1512 26.0206L30.3338 34.2033C31.4016 35.271 33.1331 35.271 34.2009 34.2033C35.2677 33.1341 35.2677 31.3978 34.2013 30.3314ZM5.40837 14.2191C5.40837 9.39427 9.33356 5.46908 14.1584 5.46908C18.9832 5.46908 22.9084 9.39427 22.9084 14.2191C22.9084 19.0439 18.9832 22.9691 14.1584 22.9691C9.33356 22.9691 5.40837 19.0452 5.40837 14.2191Z" fill="white"/>
</g>
<defs>
<clipPath id="clip0_129:301">
<rect width="35" height="35" fill="white"/>
</clipPath>
</defs>
</svg>
