<svg width="100" height="104" viewBox="0 0 100 104" fill="none" xmlns="http://www.w3.org/2000/svg">
<ellipse cx="49.5" cy="51.6129" rx="36.5" ry="32.5" fill="white"/>
<path d="M50 1.61288C22.379 1.61288 0 23.9919 0 51.6129C0 79.2338 22.379 101.613 50 101.613C77.621 101.613 100 79.0524 100 51.6129C100 24.1734 77.4395 1.61288 50 1.61288ZM73.004 35.625C72.2516 43.5322 68.996 62.7218 67.3387 71.5726C66.6379 75.3185 65.2581 76.5766 63.9214 76.6976C61.0181 76.9649 58.8125 74.7788 56 72.9355C51.5988 70.0504 49.1129 68.254 44.8407 65.4395C39.9032 62.1855 43.1044 60.3992 45.9177 57.4758C46.654 56.7111 59.448 45.0746 59.694 44.0181C59.7248 43.8861 59.7544 43.3931 59.4613 43.1343C59.1681 42.8754 58.7375 42.9631 58.426 43.0334C57.9847 43.1337 50.9552 47.7802 37.3373 56.973C35.3413 58.3426 33.5342 59.0102 31.9159 58.9758C30.1306 58.9373 26.6962 57.9665 24.1437 57.1365C21.0127 56.1187 18.5228 55.5806 18.7405 53.8522C18.8534 52.9517 20.0933 52.031 22.4603 51.0901C37.0302 44.7393 46.7479 40.5525 51.6135 38.5296C65.4986 32.7534 68.3837 31.7514 70.2647 31.7171C70.6784 31.7103 71.6032 31.8127 72.2022 32.2988C72.6007 32.645 72.8547 33.1282 72.9139 33.6528C73.0176 34.3048 73.0479 34.9663 73.004 35.625Z" fill="#0088CC"/>
</svg>
