<svg width="100" height="100" viewBox="0 0 100 100" fill="none" xmlns="http://www.w3.org/2000/svg">
<ellipse cx="50" cy="48.5714" rx="50" ry="48.5714" fill="#0077FF"/>
<path d="M82.7684 29.7223C83.2448 27.825 82.7684 26.4286 80.4769 26.4286H72.8941C70.963 26.4286 70.0747 27.6277 69.5984 28.9634C69.5984 28.9634 65.7362 40.0589 60.2777 47.2536C58.5139 49.3331 57.7029 50.0009 56.7373 50.0009C56.261 50.0009 55.5272 49.333 55.5272 47.4357V29.7223C55.5272 27.4456 54.9865 26.4286 53.3901 26.4286H41.4688C40.2587 26.4286 39.5377 27.4911 39.5377 28.4777C39.5377 30.6331 42.267 31.1339 42.5502 37.2054V50.3804C42.5502 53.2643 42.1125 53.7955 41.147 53.7955C38.5722 53.7955 32.3155 42.6545 28.6078 29.9045C27.8611 27.4304 27.1273 26.4286 25.1833 26.4286H17.6005C15.4377 26.4286 15 27.6277 15 28.9634C15 31.3313 17.5748 43.0947 26.9856 58.6375C33.2553 69.2473 42.0868 75 50.1201 75C54.9478 75 55.54 73.725 55.54 71.5241C55.54 61.3848 55.1023 60.4286 57.5226 60.4286C58.6427 60.4286 60.5738 61.0964 65.0796 66.2116C70.2292 72.2831 71.0789 75 73.9627 75H81.5454C83.7082 75 84.8025 73.725 84.1717 71.2054C82.7298 65.9081 72.9842 55.0098 72.5465 54.2813C71.4265 52.5813 71.7483 51.8223 72.5465 50.3045C72.5594 50.2893 81.8158 34.9286 82.7684 29.7223Z" fill="white"/>
</svg>
